<svg xmlns="http://www.w3.org/2000/svg" width="1200" height="800" viewBox="0 0 1200 800">
  <defs>
    <radialGradient id="vignette" cx="50%" cy="40%" r="80%">
      <stop offset="0%" stop-color="#d4af37" stop-opacity="0.14"/>
      <stop offset="55%" stop-color="#0a0a0a" stop-opacity="0"/>
      <stop offset="100%" stop-color="#000000" stop-opacity="0.8"/>
    </radialGradient>
    <pattern id="spot" width="260" height="260" patternUnits="userSpaceOnUse">
      <g>
        <g fill="#d4af37" fill-opacity="0.5">
          <circle cx="68" cy="68" r="9"/>
          <circle cx="94" cy="84" r="5"/>
          <circle cx="52" cy="92" r="4.8"/>
          <circle cx="192" cy="148" r="9.5"/>
          <circle cx="216" cy="172" r="5.6"/>
          <circle cx="176" cy="176" r="4.4"/>
          <circle cx="96" cy="208" r="7"/>
          <circle cx="120" cy="224" r="4.4"/>
          <circle cx="148" cy="32" r="7"/>
          <circle cx="168" cy="52" r="4"/>
          <circle cx="232" cy="56" r="6"/>
          <circle cx="28" cy="180" r="5"/>
        </g>
        <g fill="none" stroke="#d4af37" stroke-opacity="0.48" stroke-width="3">
          <circle cx="140" cy="140" r="36"/>
          <circle cx="140" cy="140" r="43" stroke-opacity="0.2"/>
          <circle cx="40" cy="220" r="30"/>
          <circle cx="220" cy="40" r="28"/>
          <circle cx="260" cy="150" r="9" fill="#d4af37" fill-opacity="0.55" stroke="none"/>
          <circle cx="40" cy="150" r="9" fill="#d4af37" fill-opacity="0.55" stroke="none"/>
        </g>
      </g>
    </pattern>
  </defs>
  <rect width="1200" height="800" fill="#12110e"/>
  <rect width="1200" height="800" fill="url(#spot)"/>
  <rect width="1200" height="800" fill="url(#vignette)"/>
  <rect x="12" y="12" width="1176" height="776" fill="none" stroke="#d4af37" stroke-opacity="0.35" stroke-width="2"/>
  <text x="600" y="760" text-anchor="middle" font-family="Georgia, serif" font-size="22" letter-spacing="12" fill="#d4af37" fill-opacity="0.65">LEOPARD SPOT — MACRO DETAIL</text>
</svg>